# AST/ASF file generated using VICON BodyLanguage
# -----------------------------------------------
:version 1.10
:name VICON
:units
  mass 1.0
  length 0.45
  angle deg
:documentation
   .ast/.asf automatically generated from VICON data using
   VICON BodyBuilder and BodyLanguage model FoxedUp or BRILLIANT.MOD
:root
   order TX TY TZ RX RY RZ
   axis XYZ
   position 0 0 0  
   orientation 0 0 0 
:bonedata
  begin
     id 1 
     name lhipjoint
     direction 0.677091 -0.635792 0.370561 
     length 2.74323 
     axis 0 0 0  XYZ
  end
  begin
     id 2 
     name lfemur
     direction 0.34202 -0.939693 0  
     length 7.44995  
     axis 0 0 20  XYZ
    dof rx ry rz
    limits (-160.0 20.0)
           (-70.0 70.0)
           (-60.0 70.0)
  end
  begin
     id 3 
     name ltibia
     direction 0.34202 -0.939693 0   
     length 7.34467   
     axis 0 0 20   XYZ
    dof rx
    limits (-10.0 170.0)
  end
  begin
     id 4 
     name lfoot
     direction 0.101953 -0.280114 0.954537   
     length 1.72105   
     axis -90 7.62852e-016 20   XYZ
    dof rx rz
    limits (-45.0 90.0)
           (-70.0 20.0)
  end
  begin
     id 5 
     name ltoes
     direction 1.53537e-011 -4.21915e-011 1   
     length 0.865872   
     axis -90 7.62852e-016 20   XYZ
    dof rx
    limits (-90.0 20.0)
  end
  begin
     id 6 
     name rhipjoint
     direction -0.695735 -0.620586 0.361699   
     length 2.81045  
     axis 0 0 0  XYZ 
  end
  begin
     id 7 
     name rfemur
     direction -0.34202 -0.939693 0   
     length 7.29387   
     axis 0 0 -20   XYZ
    dof rx ry rz
    limits (-160.0 20.0)
           (-70.0 70.0)
           (-70.0 60.0)
  end
  begin
     id 8 
     name rtibia
     direction -0.34202 -0.939693 0   
     length 7.44935   
     axis 0 0 -20   XYZ
    dof rx
    limits (-10.0 170.0)
 end
 begin
     id 9 
     name rfoot
     direction -0.104163 -0.286184 0.952496   
     length 1.77731  
     axis -90 -7.62852e-016 -20   XYZ
    dof rx rz
    limits (-45.0 90.0)
           (-20.0 70.0)
  end
  begin
     id 10 
     name rtoes
     direction -1.5355e-011 -4.21888e-011 1   
     length 0.892424   
     axis -90 -7.62852e-016 -20   XYZ
    dof rx
    limits (-90.0 20.0)
  end
  begin
     id 11 
     name lowerback
     direction 0.0100202 0.997226 -0.0737589   
     length 2.16892   
     axis 0 0 0   XYZ
    dof rx ry rz
    limits (-20.0 45.0)
           (-30.0 30.0)
           (-30.0 30.0)
  end
  begin
     id 12 
     name upperback
     direction 0.00432398 0.999988 -0.00215019   
     length 2.17326   
     axis 0 0 0   XYZ
    dof rx ry rz
    limits (-20.0 45.0)
           (-30.0 30.0)
           (-30.0 30.0)
  end
  begin
     id 13 
     name thorax
     direction -0.00195047 0.999485 0.0320434   
     length 2.18139   
     axis 0 0 0   XYZ
    dof rx ry rz
    limits (-20.0 45.0)
           (-30.0 30.0)
           (-30.0 30.0)
  end
  begin
     id 14 
     name lowerneck
     direction 0.00782762 0.986241 0.165128   
     length 1.88415   
     axis 0 0 0   XYZ
    dof rx ry rz
    limits (-20.0 45.0)
           (-30.0 30.0)
           (-30.0 30.0)
  end
  begin
     id 15 
     name upperneck
     direction 0.00988667 0.981098 -0.193258   
     length 1.9242   
     axis 0 0 0   XYZ
    dof rx ry rz
    limits (-20.0 45.0)
           (-30.0 30.0)
           (-30.0 30.0)
  end
  begin
     id 16
     name head
     direction 0.00252199 0.996513 -0.0833958  
     length 1.93887  
     axis 0 0 0   XYZ
    dof rx ry rz
    limits (-20.0 45.0)
           (-30.0 30.0)
           (-30.0 30.0)
  end
  begin
     id 17 
     name lclavicle
     direction 0.929492 0.368193 -0.0218667  
     length 3.5955  
     axis 0 0 0   XYZ
    dof ry rz
    limits (-20.0 10.0)
           (0.0 20.0)
  end
  begin
     id 18 
     name lhumerus
     direction 1 -4.48972e-011 1.41911e-027   
     length 5.2795   
     axis 180 -30 -90   XYZ
    dof rx ry rz
    limits (-60.0 90.0)
           (-90.0 90.0)
           (-90.0 90.0)
  end
  begin
     id 19
     name lradius
     direction 1 -4.48963e-011 7.05772e-027   
     length 3.53504   
     axis 180 -30 -90   XYZ
    dof rx
    limits (-10.0 170.0)
  end
  begin
     id 20
     name lwrist
     direction 1 -4.48957e-011 9.54866e-027   
     length 1.76752   
     axis -7.69462e-015 90 90   XYZ
    dof ry
    limits (-180.0 0.0)
 end
  begin
     id 21 
     name lhand
     direction 1 -4.48979e-011 1.90973e-026   
     length 0.667948   
     axis -1.21857e-014 90 90   XYZ
    dof rx rz
    limits (-90.0 90.0)
           (-45.0 45.0)
  end
  begin
     id 22 
     name lfingers
     direction 1 -4.48987e-011 3.81946e-026   
     length 0.538517   
     axis -2.43714e-014 90 90   XYZ
    dof rx
    limits (0.0 90.0)
  end
  begin
     id 23
     name lthumb
     direction 0.707107 -6.34962e-011 0.707107   
     length 0.773206   
     axis -90 45 2.85299e-015   XYZ
    dof rx rz
    limits (-45.0 45.0)
           (-45.0 45.0)
  end
  begin
     id 24 
     name rclavicle
     direction -0.898763 0.414256 -0.143584   
     length 3.5176  
     axis 0 0 0   XYZ 
    dof ry rz
    limits (-10.0 20.0)
           (-20.0 0.0)
  end
  begin
     id 25 
     name rhumerus
     direction -1 -4.48971e-011 1.129e-027  
     length 5.25035   
     axis 180 30 90   XYZ
    dof rx ry rz
    limits (-90.0 60.0)
           (-90.0 90.0)
           (-90.0 90.0)
  end
  begin
     id 26 
     name rradius
     direction -1 -4.48955e-011 6.34664e-027   
     length 3.58884   
     axis 180 30 90   XYZ
    dof rx
    limits (-10.0 170.0)
  end
  begin
     id 27 
     name rwrist
     direction -1 -4.48966e-011 9.54866e-027   
     length 1.79442   
     axis -7.69462e-015 -90 -90   XYZ
    dof ry
    limits (-180.0 0.0)
  end
  begin
     id 28
     name rhand
     direction -1 -4.48973e-011 1.90973e-026   
     length 0.779235   
     axis -1.21857e-014 -90 -90   XYZ
    dof rx rz
    limits (-90.0 90.0)
           (-45.0 45.0)
  end
  begin
     id 29
     name rfingers
     direction -1 -4.48984e-011 3.81946e-026   
     length 0.62824   
     axis -2.43714e-014 -90 -90   XYZ
    dof rx
    limits (0.0 90.0)
  end
  begin
     id 30
     name rthumb
     direction -0.707107 -6.34968e-011 0.707107   
     length 0.90203   
     axis -90 -45 -2.85299e-015   XYZ
    dof rx rz
    limits (-45.0 45.0)
           (-45.0 45.0)
  end
:hierarchy
  begin
    root lhipjoint rhipjoint lowerback
    lhipjoint lfemur
    lfemur ltibia
    ltibia lfoot
    lfoot ltoes
    rhipjoint rfemur
    rfemur rtibia
    rtibia rfoot
    rfoot rtoes
    lowerback upperback
    upperback thorax
    thorax lowerneck lclavicle rclavicle
    lowerneck upperneck
    upperneck head
    lclavicle lhumerus
    lhumerus lradius
    lradius lwrist
    lwrist lhand lthumb
    lhand lfingers
    rclavicle rhumerus
    rhumerus rradius
    rradius rwrist
    rwrist rhand rthumb
    rhand rfingers
  end

#!OML:ASF I:\Random Stuff\random\construction\7_22_03\Session 2\subj1.ASF
:FULLY-SPECIFIED
:DEGREES
31
root -10.1138 17.539 1.85798 -1.52393 55.7638 -5.52372
lowerback 2.97106 1.3368 0.820824
upperback -2.83707 1.90198 1.3584
thorax -4.61377 0.949199 0.810486
lowerneck -24.8875 0.804975 -0.0588107
upperneck 24.3578 0.734953 1.7119
head 12.1584 0.593404 0.793837
rclavicle -2.26661e-014 -2.88238e-015
rhumerus -35.4314 18.1261 -92.4974
rradius 47.3204
rwrist -3.26193
rhand -16.7205 22.5304
rfingers 7.12502
rthumb 9.50501 -7.23521
lclavicle -2.26661e-014 -2.88238e-015
lhumerus -32.4887 -21.0935 101.516
lradius 51.8636
lwrist 46.3445
lhand -13.1893 62.1909
lfingers 7.12502
lthumb -167.089 88.2284
rfemur -2.45699 34.7935 21.7857
rtibia 12.0291
rfoot -37.6206 -48.9738
rtoes 41.3704
lfemur -10.8897 -13.8547 -11.6828
ltibia 25.6123
lfoot -17.4791 22.6535
ltoes -28.4082
32
root -10.1068 17.5368 1.86274 -1.57351 55.7907 -5.56523
lowerback 3.05248 1.31419 0.814172
upperback -2.82078 1.87414 1.39667
thorax -4.64442 0.93612 0.85389
lowerneck -24.9578 0.849271 0.0653541
upperneck 24.4112 0.780603 1.60254
head 12.1935 0.610608 0.740832
rclavicle -7.05041e-014 6.4605e-016
rhumerus -35.7105 18.5421 -92.4259
rradius 47.1255
rwrist -2.8913
rhand -16.6154 22.6799
rfingers 7.12502
rthumb 9.60646 -7.08106
lclavicle -7.05041e-014 6.4605e-016
lhumerus -32.4123 -20.4117 101.197
lradius 50.1529
lwrist 47.0578
lhand -12.9619 62.0644
lfingers 7.12502
lthumb -166.87 88.3689
rfemur -2.39072 34.7689 21.85
rtibia 12.019
rfoot -37.6796 -48.9625
rtoes 41.4304
lfemur -10.8556 -13.6186 -11.661
ltibia 25.5961
lfoot -17.3681 22.4673
ltoes -28.916
33
root -10.0997 17.5362 1.86624 -1.59204 55.8079 -5.60953
lowerback 3.12728 1.32556 0.840869
upperback -2.83516 1.89207 1.38964
thorax -4.70106 0.9438 0.828438
lowerneck -25.0148 0.879774 0.250225
upperneck 24.483 0.776464 1.51547
head 12.2343 0.615005 0.677592
rclavicle 2.79269e-014 9.54166e-015
rhumerus -35.9759 18.601 -92.2877
rradius 46.7167
rwrist -2.53354
rhand -16.4981 22.7609
rfingers 7.12502
rthumb 9.71962 -6.99487
lclavicle 2.79269e-014 9.54166e-015
lhumerus -32.5752 -20.2546 101.123
lradius 48.5237
lwrist 49.3785
lhand -15.1329 62.4971
lfingers 7.12502
lthumb -168.963 87.8131
rfemur -2.34724 34.7542 21.8861
rtibia 11.9449
rfoot -37.6512 -49.0104
rtoes 41.4082
lfemur -10.8527 -13.5562 -11.6305
ltibia 25.5888
lfoot -17.3415 22.3931
ltoes -29.0439
34
root -10.0947 17.5413 1.86904 -1.50761 55.9533 -5.6635
lowerback 3.14752 1.28912 0.864264
upperback -2.89454 1.84669 1.38903
thorax -4.77331 0.920513 0.816813
lowerneck -25.0557 0.88976 0.275046
upperneck 24.5413 0.762988 1.57458
head 12.2653 0.620301 0.694571
rclavicle 2.25116e-014 -4.82053e-015
rhumerus -36.0835 18.3973 -92.0057
rradius 45.9333
rwrist -2.09167
rhand -16.2739 22.8558
rfingers 7.12502
rthumb 9.93592 -6.88968
lclavicle 2.25116e-014 -4.82053e-015
lhumerus -32.5533 -19.6651 100.777
lradius 46.2233
lwrist 49.2779
lhand -15.0828 62.2879
lfingers 7.12502
lthumb -168.915 88.0248
rfemur -2.43816 34.6105 21.8373
rtibia 11.8656
rfoot -37.6909 -49.0186
rtoes 41.4493
lfemur -11.0185 -13.582 -11.5596
ltibia 25.5878
lfoot -17.3206 22.262
ltoes -28.9507
35
root -10.0853 17.5441 1.87352 -1.46627 56.0792 -5.71848
lowerback 3.12779 1.22528 0.8664
upperback -2.88939 1.76339 1.43631
thorax -4.75743 0.880167 0.871008
lowerneck -25.1571 0.906603 0.173459
upperneck 24.6271 0.788503 1.70004
head 12.3173 0.640026 0.765502
rclavicle -1.49912e-014 2.17669e-014
rhumerus -36.0635 18.1801 -91.5734
rradius 44.8872
rwrist -1.61113
rhand -16.0361 22.9033
rfingers 7.12502
rthumb 10.1654 -6.83114
lclavicle -1.49912e-014 2.17669e-014
lhumerus -32.3642 -18.6963 100.307
lradius 43.8153
lwrist 48.5108
lhand -16.159 61.6231
lfingers 7.12502
lthumb -169.953 88.6367
rfemur -2.44722 34.4866 21.8306
rtibia 11.7967
rfoot -37.7821 -48.9692
rtoes 41.5221
lfemur -11.1187 -13.4832 -11.5165
ltibia 25.5818
lfoot -17.2276 22.1241
ltoes -29.2857
36
root -10.0704 17.5421 1.87903 -1.46127 56.1127 -5.69258
lowerback 3.13278 1.20145 0.861767
upperback -2.8355 1.73058 1.45238
thorax -4.70435 0.864253 0.89302
lowerneck -25.2807 0.9134 0.00551625
upperneck 24.7281 0.801546 1.9075
head 12.3791 0.659495 0.877207
rclavicle -1.04083e-013 -2.18663e-015
rhumerus -36.0706 17.8206 -91.0804
rradius 43.7521
rwrist -1.31548
rhand -15.9712 22.7485
rfingers 7.12502
rthumb 10.2279 -6.98287
lclavicle -1.04083e-013 -2.18663e-015
lhumerus -32.1461 -17.6295 99.7127
lradius 41.3382
lwrist 47.1743
lhand -16.9908 61.1315
lfingers 7.12502
lthumb -170.756 89.0911
rfemur -2.31886 34.4577 21.8615
rtibia 11.7525
rfoot -37.7927 -48.9586
rtoes 41.4906
lfemur -11.0393 -13.4325 -11.5717
ltibia 25.5627
lfoot -17.1829 22.1277
ltoes -29.4276
37
root -10.0516 17.5406 1.8843 -1.37998 56.0927 -5.60422
lowerback 3.0957 1.20652 0.885478
upperback -2.80395 1.7343 1.39734
thorax -4.64786 0.864188 0.823752
lowerneck -25.3067 0.891819 -0.0265134
upperneck 24.7356 0.755795 1.99888
head 12.3872 0.649127 0.909678
rclavicle 1.72904e-014 5.51627e-015
rhumerus -36.0888 17.1477 -90.5566
rradius 42.4643
rwrist -1.16651
rhand -15.8536 22.7019
rfingers 7.12502
rthumb 10.3414 -7.02383
lclavicle 1.72904e-014 5.51627e-015
lhumerus -32.0488 -16.5879 98.9775
lradius 38.8097
lwrist 45.339
lhand -17.4571 60.9189
lfingers 7.12502
lthumb -171.206 89.2844
rfemur -2.24821 34.4798 21.8241
rtibia 11.7453
rfoot -37.7624 -49.0081
rtoes 41.3946
lfemur -10.9529 -13.5203 -11.6743
ltibia 25.5468
lfoot -17.2248 22.2692
ltoes -29.2912
38
root -10.0321 17.5419 1.89012 -1.25392 56.0484 -5.53185
lowerback 3.01609 1.21674 0.914141
upperback -2.79736 1.74444 1.32711
thorax -4.59261 0.867044 0.736314
lowerneck -25.182 0.880435 0.102135
upperneck 24.5887 0.710657 1.92788
head 12.3067 0.63043 0.85019
rclavicle -4.34003e-014 4.72114e-016
rhumerus -36.0653 16.1626 -89.9164
rradius 40.9687
rwrist -0.871052
rhand -15.732 22.8653
rfingers 7.12502
rthumb 10.4587 -6.85453
lclavicle -4.34003e-014 4.72114e-016
lhumerus -31.8804 -15.0701 97.9085
lradius 36.1578
lwrist 42.7643
lhand -17.3653 61.0161
lfingers 7.12502
lthumb -171.117 89.1909
rfemur -2.26783 34.5212 21.7394
rtibia 11.7428
rfoot -37.8121 -49.01
rtoes 41.396
lfemur -10.9364 -13.5648 -11.7453
ltibia 25.5447
lfoot -17.3237 22.3417
ltoes -29.0911
39
root -10.0167 17.544 1.89695 -1.21669 56.0334 -5.56421
lowerback 2.98435 1.20819 0.931479
upperback -2.81445 1.73305 1.3105
thorax -4.59123 0.86059 0.710776
lowerneck -25.0161 0.897038 0.20966
upperneck 24.4332 0.715276 1.85527
head 12.2143 0.631381 0.802161
rclavicle 8.22083e-015 -1.28465e-014
rhumerus -36.0811 15.0496 -89.1382
rradius 39.3605
rwrist -0.470637
rhand -15.9587 22.7146
rfingers 7.12502
rthumb 10.24 -7.01616
lclavicle 8.22083e-015 -1.28465e-014
lhumerus -31.7135 -13.1543 96.7105
lradius 33.3403
lwrist 39.7672
lhand -17.2391 61.0508
lfingers 7.12502
lthumb -170.995 89.1614
rfemur -2.2888 34.5378 21.7267
rtibia 11.7234
rfoot -37.9075 -48.9579
rtoes 41.5021
lfemur -10.9452 -13.5369 -11.7306
ltibia 25.5481
lfoot -17.4055 22.3093
ltoes -28.9357
40
root -10.0012 17.5441 1.90363 -1.26223 56.0282 -5.67335
lowerback 2.9622 1.19457 0.972062
upperback -2.83468 1.71772 1.32185
thorax -4.5988 0.851975 0.70111
lowerneck -24.9787 0.918816 0.178624
upperneck 24.472 0.751973 1.88061
head 12.2217 0.648685 0.823583
rclavicle -1.26811e-013 -2.95692e-015
rhumerus -36.0888 13.8013 -88.216
rradius 37.6765
rwrist -0.111656
rhand -16.1332 22.2046
rfingers 7.12502
rthumb 10.0717 -7.53436
lclavicle -1.26811e-013 -2.95692e-015
lhumerus -31.772 -11.5477 95.719
lradius 30.6274
lwrist 37.2834
lhand -18.2659 61.1525
lfingers 7.12502
lthumb -171.986 89.0194
rfemur -2.27451 34.5466 21.7848
rtibia 11.7058
rfoot -37.9645 -48.9321
rtoes 41.557
lfemur -10.934 -13.5133 -11.6776
ltibia 25.5539
lfoot -17.46 22.3044
ltoes -28.8828
41
root -9.98374 17.5426 1.90867 -1.29179 56.0017 -5.74288
lowerback 2.96336 1.19442 1.01079
upperback -2.84245 1.71941 1.31437
thorax -4.60621 0.851391 0.671491
lowerneck -25.073 0.908899 0.0678548
upperneck 24.6814 0.748721 1.99061
head 12.3213 0.653917 0.886915
rclavicle 2.91227e-015 -5.8393e-015
rhumerus -35.9984 12.24 -87.1166
rradius 35.8558
rwrist 0.375453
rhand -16.0434 22.1401
rfingers 7.12502
rthumb 10.1582 -7.59462
lclavicle 2.91227e-015 -5.8393e-015
lhumerus -31.8492 -9.95609 94.6061
lradius 28.2294
lwrist 35.2503
lhand -19.351 61.6106
lfingers 7.12502
lthumb -173.034 88.524
rfemur -2.23008 34.5712 21.8322
rtibia 11.6967
rfoot -37.9503 -48.9653
rtoes 41.4295
lfemur -10.8931 -13.5051 -11.6673
ltibia 25.5693
lfoot -17.5287 22.3277
ltoes -28.7734
42
root -9.96339 17.5401 1.9144 -1.25988 55.956 -5.67939
lowerback 2.98198 1.19522 0.971457
upperback -2.8114 1.71644 1.28601
thorax -4.58463 0.85052 0.664353
lowerneck -25.1089 0.908424 0.0200382
upperneck 24.7419 0.747118 2.0563
head 12.3517 0.658357 0.920805
rclavicle -4.58824e-014 -4.70871e-015
rhumerus -35.815 10.3447 -85.8332
rradius 33.859
rwrist 1.18643
rhand -16.1002 22.3255
rfingers 7.12502
rthumb 10.1035 -7.41191
lclavicle -4.58824e-014 -4.70871e-015
lhumerus -31.765 -7.88672 93.1309
lradius 25.8936
lwrist 33.1229
lhand -19.7618 61.9189
lfingers 7.12502
lthumb -173.43 88.203
rfemur -2.1036 34.6185 21.8338
rtibia 11.6676
rfoot -37.9599 -49.0052
rtoes 41.2564
lfemur -10.782 -13.5777 -11.7695
ltibia 25.5983
lfoot -17.6146 22.4548
ltoes -28.7808
43
root -9.94255 17.5377 1.9211 -1.21303 55.9446 -5.54726
lowerback 3.03084 1.1911 0.888744
upperback -2.76446 1.70373 1.23735
thorax -4.5642 0.845675 0.660733
lowerneck -25.112 0.922857 -0.0246582
upperneck 24.6979 0.756391 2.15208
head 12.3341 0.671251 0.965808
rclavicle 5.16819e-014 4.1605e-015
rhumerus -35.5974 8.12057 -84.3868
rradius 31.7554
rwrist 2.30802
rhand -16.3598 22.1706
rfingers 7.12502
rthumb 9.85301 -7.57884
lclavicle 5.16819e-014 4.1605e-015
lhumerus -31.7378 -5.68721 91.5027
lradius 23.6572
lwrist 30.9078
lhand -19.9864 62.1251
lfingers 7.12502
lthumb -173.647 87.9902
rfemur -1.89622 34.6388 21.8277
rtibia 11.6144
rfoot -38.0641 -48.9813
rtoes 41.2736
lfemur -10.6307 -13.7136 -11.9262
ltibia 25.6317
lfoot -17.7391 22.5857
ltoes -28.726
44
root -9.92766 17.5368 1.92525 -1.29271 55.9828 -5.65025
lowerback 3.10632 1.17385 0.916625
upperback -2.76234 1.68312 1.23368
thorax -4.60388 0.834214 0.641152
lowerneck -25.0795 0.926636 -0.0641701
upperneck 24.6142 0.769024 2.18062
head 12.2942 0.676242 0.983938
rclavicle 6.87425e-014 8.21229e-015
rhumerus -35.4269 5.7943 -82.8127
rradius 29.6666
rwrist 3.49441
rhand -16.5647 22.0939
rfingers 7.12502
rthumb 9.65537 -7.66483
lclavicle 6.87425e-014 8.21229e-015
lhumerus -31.8875 -3.58325 89.8738
lradius 21.731
lwrist 28.5502
lhand -20.1789 62.3093
lfingers 7.12502
lthumb -173.833 87.8005
rfemur -1.79777 34.6061 21.9172
rtibia 11.5776
rfoot -38.1243 -48.9654
rtoes 41.3374
lfemur -10.5959 -13.7815 -11.8909
ltibia 25.6551
lfoot -17.8347 22.5821
ltoes -28.595
45
root -9.91375 17.5383 1.92845 -1.35011 56.0166 -5.85057
lowerback 3.07928 1.15297 0.969799
upperback -2.785 1.65977 1.26513
thorax -4.61149 0.821645 0.645844
lowerneck -25.0154 0.934383 -0.0120993
upperneck 24.5298 0.800498 2.04459
head 12.2489 0.675248 0.927193
rclavicle 7.43288e-015 7.24322e-015
rhumerus -35.3219 3.38161 -81.0601
rradius 27.6631
rwrist 4.8666
rhand -16.5323 22.0076
rfingers 7.12502
rthumb 9.68656 -7.7497
lclavicle 7.43288e-015 7.24322e-015
lhumerus -32.1636 -1.71987 88.3346
lradius 20.0832
lwrist 26.3701
lhand -20.1418 62.3652
lfingers 7.12502
lthumb -173.797 87.7456
rfemur -1.8636 34.5564 21.9817
rtibia 11.5676
rfoot -38.1467 -48.9417
rtoes 41.3262
lfemur -10.6813 -13.7224 -11.7631
ltibia 25.6604
lfoot -17.8319 22.5221
ltoes -28.7563
